<?xml version="1.0" standalone="no"?>
<!DOCTYPE svg PUBLIC "-//W3C//DTD SVG 20010904//EN"
 "http://www.w3.org/TR/2001/REC-SVG-20010904/DTD/svg10.dtd">
<svg version="1.0" xmlns="http://www.w3.org/2000/svg"
 width="260.000000pt" height="260.000000pt" viewBox="0 0 260.000000 260.000000"
 preserveAspectRatio="xMidYMid meet">
<metadata>
Created by potrace 1.14, written by Peter Selinger 2001-2017
</metadata>
<g transform="translate(0.000000,260.000000) scale(0.100000,-0.100000)"
fill="#000000" stroke="none">
<path d="M900 2305 c0 -23 -4 -25 -45 -25 -38 0 -45 -3 -45 -20 0 -15 -7 -20
-25 -20 l-25 0 0 -135 0 -135 -270 0 -270 0 0 -25 c0 -23 -4 -25 -45 -25 -38
0 -45 -3 -45 -20 0 -13 -7 -20 -20 -20 -19 0 -20 -7 -20 -160 l0 -160 515 0
515 0 0 45 c0 41 2 45 25 45 20 0 25 5 25 25 0 18 5 25 20 25 13 0 20 7 20 20
0 19 7 20 90 20 83 0 90 -1 90 -20 0 -13 7 -20 20 -20 17 0 20 -7 20 -45 0
-41 2 -45 25 -45 20 0 25 -5 25 -25 l0 -25 515 0 515 0 0 160 c0 153 -1 160
-20 160 -13 0 -20 7 -20 20 0 17 -7 20 -45 20 -41 0 -45 2 -45 25 l0 25 -295
0 -295 0 0 110 c0 103 -1 110 -20 110 -17 0 -20 7 -20 45 l0 45 -45 0 c-41 0
-45 2 -45 25 l0 25 -380 0 -380 0 0 -25z m670 -90 c0 -23 4 -25 45 -25 l45 0
0 -110 0 -110 -380 0 -380 0 0 45 c0 41 -2 45 -25 45 -18 0 -25 5 -25 20 0 15
7 20 25 20 23 0 25 4 25 45 0 38 3 45 20 45 15 0 20 7 20 25 l0 25 315 0 315
0 0 -25z"/>
<path d="M90 935 c0 -578 0 -585 20 -585 13 0 20 -7 20 -20 0 -20 7 -20 1170
-20 1163 0 1170 0 1170 20 0 13 7 20 20 20 20 0 20 7 20 585 l0 585 -515 0
-515 0 0 -45 c0 -41 -2 -45 -25 -45 -20 0 -25 -5 -25 -25 0 -18 -5 -25 -20
-25 -13 0 -20 -7 -20 -20 0 -19 -7 -20 -90 -20 -83 0 -90 1 -90 20 0 13 -7 20
-20 20 -15 0 -20 7 -20 25 0 20 -5 25 -25 25 -18 0 -25 5 -25 20 0 13 -7 20
-20 20 -15 0 -20 7 -20 25 l0 25 -495 0 -495 0 0 -585z"/>
</g>
</svg>
